<svg width="37" height="37" viewBox="0 0 37 37" fill="none" xmlns="http://www.w3.org/2000/svg">
<path d="M21.3035 25.5845C17.2121 23.1449 13.7987 19.7315 11.3588 15.6397L16.5248 10.4737L6.58034 0.528931L2.41286 4.69611C-0.00932384 7.11829 -0.683762 10.8066 0.735305 13.8743C2.6335 17.9783 5.08314 21.7551 8.01588 25.0996C12.2221 29.896 17.3241 33.6701 23.1801 36.3166C26.1806 37.6725 29.8079 36.9697 32.2059 34.5716L36.4143 30.3632L26.4696 20.4185L21.3035 25.5845ZM30.5485 32.9142C28.8347 34.6281 26.2614 35.1368 24.1453 34.1804C12.1962 28.7803 5.97609 19.6223 2.86269 12.8904C1.85469 10.7108 2.33992 8.08386 4.07027 6.35352L6.58034 3.84375L13.21 10.4737L8.4413 15.2427L8.87068 16.0154C11.6878 21.0862 15.8571 25.2558 20.9282 28.0729L21.7009 28.5023L26.4696 23.7336L33.0995 30.3632L30.5485 32.9142Z" fill="#010101"/>
</svg>
